# Blender 3.1.2
# www.blender.org
mtllib LiftTB.mtl
o lift_bottom
v 0.000000 -1.000000 8.000000
v 0.000000 1.000000 8.000000
v 0.000000 -1.000000 -8.000000
v 0.000000 1.000000 -8.000000
v 16.000000 -1.000000 8.000000
v 16.000000 1.000000 8.000000
v 16.000000 -1.000000 -8.000000
v 16.000000 1.000000 -8.000000
vn -1.0000 -0.0000 -0.0000
vn -0.0000 -0.0000 -1.0000
vn 1.0000 -0.0000 -0.0000
vn -0.0000 -0.0000 1.0000
vn -0.0000 -1.0000 -0.0000
vn -0.0000 1.0000 -0.0000
vt 0.900000 0.500000
vt 0.850000 0.500000
vt 0.000000 0.500000
vt 0.850000 0.500000
vt 0.800000 0.500000
vt 0.799999 1.000000
vt 0.900000 0.999999
vt 0.000000 0.000000
vt 0.900000 0.000000
vt 0.850000 0.000000
vt 0.850000 0.999999
vt 0.799999 0.500000
vt 0.850000 1.000000
vt 0.850000 0.000000
vt 0.400000 0.500000
vt 0.800000 0.000000
vt 0.800000 1.000000
vt 0.400000 1.000000
vt 0.850000 0.500000
vt 0.900000 0.500000
vt 0.400000 0.000000
vt 0.400000 0.500000
vt 0.850000 0.500000
vt 0.800000 0.500000
s 0
usemtl LiftTBMaterial
f 2/4/1 3/9/1 1/1/1
f 4/11/2 7/20/2 3/7/2
f 8/24/3 5/14/3 7/19/3
f 6/17/4 1/2/4 5/13/4
f 7/21/5 1/3/5 3/8/5
f 4/12/6 6/18/6 8/22/6
f 2/4/1 4/10/1 3/9/1
f 4/11/2 8/23/2 7/20/2
f 8/24/3 6/16/3 5/14/3
f 6/17/4 2/5/4 1/2/4
f 7/21/5 5/15/5 1/3/5
f 4/12/6 2/6/6 6/18/6
o lift_top
v 0.000000 33.000000 8.000000
v 0.000000 35.000000 8.000000
v 0.000000 33.000000 -8.000000
v 0.000000 35.000000 -8.000000
v 16.000000 33.000000 8.000000
v 16.000000 35.000000 8.000000
v 16.000000 33.000000 -8.000000
v 16.000000 35.000000 -8.000000
vn -1.0000 -0.0000 -0.0000
vn -0.0000 -0.0000 -1.0000
vn 1.0000 -0.0000 -0.0000
vn -0.0000 -0.0000 1.0000
vn -0.0000 -1.0000 -0.0000
vn -0.0000 1.0000 -0.0000
vt 1.000000 0.500000
vt 0.400000 0.500000
vt 0.950001 0.500000
vt 0.400000 1.000000
vt 0.950001 0.999999
vt 0.400000 0.000000
vt 1.000000 0.000000
vt 0.950001 0.000000
vt 0.900002 0.999999
vt 0.400000 0.500000
vt 1.000000 1.000000
vt 0.950001 0.000000
vt 0.800000 0.500000
vt 0.900002 0.000000
vt 0.950001 1.000000
vt 0.000000 1.000000
vt 0.950001 0.500000
vt 0.800000 0.000000
vt 0.000000 0.500000
vt 0.900002 0.500000
s 0
usemtl LiftTBMaterial
f 10/27/7 11/31/7 9/25/7
f 12/33/8 15/41/8 11/29/8
f 16/44/9 13/36/9 15/41/9
f 14/39/10 9/25/10 13/35/10
f 15/42/11 9/26/11 11/30/11
f 12/34/12 14/40/12 16/43/12
f 10/27/7 12/32/7 11/31/7
f 12/33/8 16/44/8 15/41/8
f 16/44/9 14/38/9 13/36/9
f 14/39/10 10/27/10 9/25/10
f 15/42/11 13/37/11 9/26/11
f 12/34/12 10/28/12 14/40/12
