# Blender 3.1.2
# www.blender.org
mtllib Hallway.mtl
o Bottom
v -48.000000 -1.000000 8.000000
v -48.000000 1.000000 8.000000
v -48.000000 -1.000000 -8.000000
v -48.000000 1.000000 -8.000000
v -2.000000 -1.000000 8.000000
v -2.000000 1.000000 8.000000
v -2.000000 -1.000000 -8.000000
v -2.000000 1.000000 -8.000000
vn -1.0000 -0.0000 -0.0000
vn -0.0000 -0.0000 -1.0000
vn 1.0000 -0.0000 -0.0000
vn -0.0000 -0.0000 1.0000
vn -0.0000 -1.0000 -0.0000
vn -0.0000 1.0000 -0.0000
vt 0.493333 0.666667
vt 0.386667 0.500000
vt 0.213334 0.500000
vt 0.480000 0.666667
vt 0.373333 0.500000
vt 0.106667 0.979167
vt 0.373333 0.979167
vt 0.320000 0.500000
vt 0.493333 0.500000
vt 0.480000 0.500000
vt 0.360000 0.979167
vt 0.213333 0.979167
vt 0.386667 0.979168
vt 0.506667 0.500000
vt 0.213334 0.979168
vt 0.493333 0.500000
vt 0.373333 0.979168
vt 0.106667 0.500000
vt 0.506667 0.666667
vt 0.373333 0.500000
vt 0.320000 0.979168
vt 0.213333 0.500000
vt 0.360000 0.500000
vt 0.493333 0.666667
s 0
usemtl HallwayMaterial
f 2/4/1 3/9/1 1/1/1
f 4/11/2 7/20/2 3/7/2
f 8/24/3 5/14/3 7/19/3
f 6/17/4 1/2/4 5/13/4
f 7/21/5 1/3/5 3/8/5
f 4/12/6 6/18/6 8/22/6
f 2/4/1 4/10/1 3/9/1
f 4/11/2 8/23/2 7/20/2
f 8/24/3 6/16/3 5/14/3
f 6/17/4 2/5/4 1/2/4
f 7/21/5 5/15/5 1/3/5
f 4/12/6 2/6/6 6/18/6
o Side_1
v -48.000000 1.000000 -8.000000
v -48.000000 33.000000 -8.000000
v -48.000000 1.000000 -10.000000
v -48.000000 33.000000 -10.000000
v 0.000000 1.000000 -8.000000
v 0.000000 33.000000 -8.000000
v 0.000000 1.000000 -10.000000
v 0.000000 33.000000 -10.000000
vn -1.0000 -0.0000 -0.0000
vn -0.0000 -0.0000 -1.0000
vn 1.0000 -0.0000 -0.0000
vn -0.0000 -0.0000 1.0000
vn -0.0000 -1.0000 -0.0000
vn -0.0000 1.0000 -0.0000
vt 0.453333 0.500000
vt 0.853333 0.000000
vt 0.960000 0.000000
vt 0.453333 0.766667
vt 0.639999 0.000000
vt 0.320000 1.000000
vt 0.426666 0.500000
vt 0.973334 0.000000
vt 0.436667 0.500000
vt 0.436667 0.766667
vt 0.213333 0.500000
vt 0.333334 1.000000
vt 0.853333 0.500000
vt 0.403333 0.500000
vt 0.960000 0.500000
vt 0.403333 0.766667
vt 0.639999 0.500000
vt 0.320000 0.500000
vt 0.420000 0.500000
vt 0.426666 0.000000
vt 0.973334 0.500000
vt 0.333334 0.500000
vt 0.213333 0.000000
vt 0.420000 0.766667
s 0
usemtl HallwayMaterial
f 10/28/7 11/33/7 9/25/7
f 12/35/8 15/44/8 11/31/8
f 16/48/9 13/38/9 15/43/9
f 14/41/10 9/26/10 13/37/10
f 15/45/11 9/27/11 11/32/11
f 12/36/12 14/42/12 16/46/12
f 10/28/7 12/34/7 11/33/7
f 12/35/8 16/47/8 15/44/8
f 16/48/9 14/40/9 13/38/9
f 14/41/10 10/29/10 9/26/10
f 15/45/11 13/39/11 9/27/11
f 12/36/12 10/30/12 14/42/12
o Side_2
v -48.000000 1.000000 10.000000
v -48.000000 33.000000 10.000000
v -48.000000 1.000000 8.000000
v -48.000000 33.000000 8.000000
v 0.000000 1.000000 10.000000
v 0.000000 33.000000 10.000000
v 0.000000 1.000000 8.000000
v 0.000000 33.000000 8.000000
vn -1.0000 -0.0000 -0.0000
vn -0.0000 -0.0000 -1.0000
vn 1.0000 -0.0000 -0.0000
vn -0.0000 -0.0000 1.0000
vn -0.0000 -1.0000 -0.0000
vn -0.0000 1.0000 -0.0000
vt 0.403334 0.500000
vt 0.213333 0.000000
vt 0.986667 0.000000
vt 0.403334 0.766667
vt 0.000000 0.000000
vt 0.973334 0.500000
vt 0.639999 0.500000
vt 1.000000 0.000000
vt 0.386667 0.500000
vt 0.386667 0.766667
vt 0.426666 0.500000
vt 0.986667 0.500000
vt 0.213333 0.500000
vt 0.420000 0.500000
vt 0.986667 0.500000
vt 0.420000 0.766667
vt 0.000000 0.500000
vt 0.973334 0.000000
vt 0.436667 0.500000
vt 0.639999 0.000000
vt 1.000000 0.500000
vt 0.986667 0.000000
vt 0.426666 0.000000
vt 0.436667 0.766667
s 0
usemtl HallwayMaterial
f 18/52/13 19/57/13 17/49/13
f 20/59/14 23/68/14 19/55/14
f 24/72/15 21/62/15 23/67/15
f 22/65/16 17/50/16 21/61/16
f 23/69/17 17/51/17 19/56/17
f 20/60/18 22/66/18 24/70/18
f 18/52/13 20/58/13 19/57/13
f 20/59/14 24/71/14 23/68/14
f 24/72/15 22/64/15 21/62/15
f 22/65/16 18/53/16 17/50/16
f 23/69/17 21/63/17 17/51/17
f 20/60/18 18/54/18 22/66/18
o Top
v -48.000000 33.000000 8.000000
v -48.000000 35.000000 8.000000
v -48.000000 33.000000 -8.000000
v -48.000000 35.000000 -8.000000
v 0.000000 33.000000 8.000000
v 0.000000 35.000000 8.000000
v 0.000000 33.000000 -8.000000
v 0.000000 35.000000 -8.000000
vn -1.0000 -0.0000 -0.0000
vn -0.0000 -0.0000 -1.0000
vn 1.0000 -0.0000 -0.0000
vn -0.0000 -0.0000 1.0000
vn -0.0000 -1.0000 -0.0000
vn -0.0000 1.0000 -0.0000
vt 0.480002 0.666667
vt 0.346668 0.500000
vt 0.000000 0.500000
vt 0.466667 0.666667
vt 0.333334 0.500000
vt 0.853334 0.500000
vt 0.360001 1.000000
vt 0.106667 0.500000
vt 0.480002 0.500000
vt 0.466667 0.500000
vt 0.346666 1.000000
vt 0.960000 0.500000
vt 0.346668 1.000000
vt 0.466667 0.500000
vt 0.000000 1.000000
vt 0.453333 0.500000
vt 0.333334 1.000000
vt 0.853334 0.000000
vt 0.466667 0.666667
vt 0.360001 0.500000
vt 0.106667 1.000000
vt 0.960000 0.000000
vt 0.346666 0.500000
vt 0.453333 0.666667
s 0
usemtl HallwayMaterial
f 26/76/19 27/81/19 25/73/19
f 28/83/20 31/92/20 27/79/20
f 32/96/21 29/86/21 31/91/21
f 30/89/22 25/74/22 29/85/22
f 31/93/23 25/75/23 27/80/23
f 28/84/24 30/90/24 32/94/24
f 26/76/19 28/82/19 27/81/19
f 28/83/20 32/95/20 31/92/20
f 32/96/21 30/88/21 29/86/21
f 30/89/22 26/77/22 25/74/22
f 31/93/23 29/87/23 25/75/23
f 28/84/24 26/78/24 30/90/24
